<?xml version="1.0" encoding="UTF-8" standalone="no"?><!DOCTYPE svg PUBLIC "-//W3C//DTD SVG 1.1//EN" "http://www.w3.org/Graphics/SVG/1.1/DTD/svg11.dtd"><svg width="100%" height="100%" viewBox="0 0 492 492" version="1.1" xmlns="http://www.w3.org/2000/svg" xmlns:xlink="http://www.w3.org/1999/xlink" xml:space="preserve" xmlns:serif="http://www.serif.com/" style="fill-rule:evenodd;clip-rule:evenodd;stroke-linejoin:round;stroke-miterlimit:1.41421;"><path id="Mail" d="M0,125.748l0,241.447l492.094,0l0,-241.447l-492.094,0Zm287.875,147.654c-11.072,8.357 -25.835,13.001 -41.828,13.001c-15.993,0 -30.756,-4.644 -41.828,-13.001l-171.003,-129.081l424.432,0l-169.773,129.081Zm-136.556,-26.931l-126.714,95.65l0,-191.3l126.714,95.65Zm8.612,6.501l35.677,26.93c13.532,10.215 31.986,15.787 50.439,15.787c19.684,0 36.907,-5.572 50.44,-15.787l35.677,-26.93l126.714,95.65l-425.662,0l126.715,-95.65Zm180.844,-6.501l126.715,-95.65l0,192.229l-126.715,-96.579Z" style="fill-rule:nonzero;"/></svg>