<?xml version="1.0" encoding="UTF-8" standalone="no"?><!DOCTYPE svg PUBLIC "-//W3C//DTD SVG 1.1//EN" "http://www.w3.org/Graphics/SVG/1.1/DTD/svg11.dtd"><svg width="100%" height="100%" viewBox="0 0 492 492" version="1.1" xmlns="http://www.w3.org/2000/svg" xmlns:xlink="http://www.w3.org/1999/xlink" xml:space="preserve" xmlns:serif="http://www.serif.com/" style="fill-rule:evenodd;clip-rule:evenodd;stroke-linejoin:round;stroke-miterlimit:1.41421;"><path id="Phone" d="M86.875,22.188c3.345,0 6.689,1.121 8.918,2.242c8.918,3.363 62.427,51.564 72.46,113.216c0,0 -5.574,25.781 -31.214,61.652c0,0 5.574,25.781 66.886,87.433c62.426,61.652 88.066,67.257 88.066,67.257c35.672,-25.782 62.426,-31.387 62.426,-31.387c62.427,10.089 110.361,63.894 113.705,72.862c12.263,28.023 -35.672,67.256 -35.672,67.256c-11.147,4.484 -23.41,6.726 -36.787,6.726c-99.213,0 -230.755,-128.908 -237.443,-135.634c-3.344,-3.363 -171.673,-173.746 -129.312,-273.51c0,0 32.328,-38.113 57.967,-38.113m71.345,311.623m0,0m-71.345,-334.041c-34.557,0 -69.115,38.112 -74.688,45.958l-2.23,2.242l-1.115,3.363c-47.934,110.973 113.706,277.994 133.771,298.171c15.607,15.693 147.148,142.36 253.05,142.36c16.722,0 31.213,-3.363 44.59,-8.968l3.345,-1.12l2.229,-2.242c10.033,-7.847 60.197,-52.685 42.361,-93.039c-6.688,-15.693 -61.312,-73.982 -130.427,-85.191l-4.459,-1.121l-4.459,1.121c-3.344,1.12 -26.754,5.604 -60.197,28.023c-11.147,-5.605 -33.442,-21.298 -70.229,-57.168c-35.673,-35.87 -51.279,-58.289 -56.853,-69.499c21.18,-33.628 26.754,-57.168 27.869,-59.41l1.115,-4.483l-1.115,-4.484c-11.148,-69.499 -70.23,-123.304 -85.836,-131.151c-4.459,-2.242 -10.033,-3.362 -16.722,-3.362Z" style="fill-rule:nonzero;"/></svg>